<svg width="372" height="8" viewBox="0 0 372 8" fill="none" xmlns="http://www.w3.org/2000/svg">
<path d="M0.662072 3.64645C0.466809 3.84171 0.466809 4.15829 0.662072 4.35355L3.84405 7.53553C4.03931 7.7308 4.3559 7.7308 4.55116 7.53553C4.74642 7.34027 4.74642 7.02369 4.55116 6.82843L1.72273 4L4.55116 1.17157C4.74642 0.976311 4.74642 0.659728 4.55116 0.464466C4.3559 0.269204 4.03931 0.269204 3.84405 0.464466L0.662072 3.64645ZM371.369 4.35355C371.564 4.15829 371.564 3.84171 371.369 3.64645L368.187 0.464466C367.992 0.269204 367.675 0.269204 367.48 0.464466C367.285 0.659728 367.285 0.976311 367.48 1.17157L370.309 4L367.48 6.82843C367.285 7.02369 367.285 7.34027 367.48 7.53553C367.675 7.7308 367.992 7.7308 368.187 7.53553L371.369 4.35355ZM1.01562 4.5H371.016V3.5H1.01562V4.5Z" fill="black"/>
</svg>
