<svg width="67" height="26" viewBox="0 0 67 26" fill="none" xmlns="http://www.w3.org/2000/svg">
<path d="M0.66871 10.8686C0.647452 11.4204 1.0776 11.8851 1.62948 11.9063C2.18135 11.9276 2.64597 11.4974 2.66723 10.9455L0.66871 10.8686ZM7.697 5.50977L8.04971 4.57403L7.87921 4.50977H7.697V5.50977ZM11.4392 10.9071L10.4406 10.8539L10.4363 10.9348L10.445 11.0154L11.4392 10.9071ZM12.2708 18.5377L11.2766 18.646L11.2908 18.7762L11.3381 18.8984L12.2708 18.5377ZM17.884 15.746L17.0462 15.2001L17.0129 15.2511L16.9861 15.3057L17.884 15.746ZM21.8341 17.421L22.7993 17.1596L22.7593 17.012L22.677 16.883L21.8341 17.421ZM25.7841 23.7489L26.1147 22.8051L25.9934 22.7626L25.8652 22.7522L25.7841 23.7489ZM31.6052 23.7489L30.7746 23.1921L30.7648 23.2067L30.7556 23.2216L31.6052 23.7489ZM34.9316 17.421L35.924 17.5442L34.9316 17.421ZM38.0501 18.5377L37.2004 19.065L38.216 20.7016L38.9702 18.9293L38.0501 18.5377ZM39.7133 14.6293L40.3803 13.8843L39.3399 12.9529L38.7931 14.2378L39.7133 14.6293ZM42.8317 17.421L42.1647 18.1661L43.1433 19.0422L43.7274 17.8657L42.8317 17.421ZM55.3056 6.25422L56.1676 5.7474L55.8777 5.25422H55.3056V6.25422ZM56.0013 6.25422C56.0013 9.19974 58.3891 11.5876 61.3346 11.5876C64.2801 11.5876 66.668 9.19974 66.668 6.25422C66.668 3.3087 64.2801 0.920886 61.3346 0.920886C58.3891 0.920886 56.0013 3.3087 56.0013 6.25422ZM2.66723 10.9455C2.69507 10.2227 2.98129 9.09306 3.73727 8.16554C4.45977 7.2791 5.66263 6.50977 7.697 6.50977V4.50977C5.07447 4.50977 3.29746 5.53953 2.18699 6.90196C1.11001 8.22331 0.710164 9.79235 0.66871 10.8686L2.66723 10.9455ZM7.34429 6.4455C7.86825 6.643 8.70311 7.1236 9.37469 7.88399C10.0306 8.62664 10.507 9.60425 10.4406 10.8539L12.4378 10.9602C12.5376 9.08315 11.8013 7.61027 10.8737 6.56003C9.96182 5.52752 8.84244 4.87284 8.04971 4.57403L7.34429 6.4455ZM10.445 11.0154L11.2766 18.646L13.2649 18.4294L12.4333 10.7987L10.445 11.0154ZM11.3381 18.8984C11.5312 19.3979 11.8479 19.956 12.3192 20.3821C12.8099 20.8258 13.4983 21.1452 14.3307 21.0258C15.1231 20.9121 15.8681 20.4244 16.5687 19.6602C17.2752 18.8896 18.0106 17.7589 18.7818 16.1863L16.9861 15.3057C16.2605 16.7853 15.6238 17.7314 15.0946 18.3086C14.5595 18.8922 14.2052 19.0233 14.0466 19.0461C13.9278 19.0631 13.8132 19.0366 13.6607 18.8987C13.4888 18.7433 13.3222 18.484 13.2035 18.1771L11.3381 18.8984ZM18.7218 16.2919C18.8069 16.1614 18.9351 16.0838 19.1167 16.1163C19.377 16.1627 20.0425 16.4728 20.9911 17.9591L22.677 16.883C21.6298 15.2425 20.5628 14.3429 19.4683 14.1474C18.2951 13.9379 17.4462 14.5862 17.0462 15.2001L18.7218 16.2919ZM20.8688 17.6824C21.1588 18.7534 21.7126 20.372 22.4464 21.7633C22.8121 22.4568 23.2452 23.1377 23.7435 23.6692C24.2275 24.1854 24.8846 24.679 25.703 24.7456L25.8652 22.7522C25.7689 22.7443 25.5441 22.6656 25.2026 22.3013C24.8753 21.9522 24.5392 21.4443 24.2154 20.8303C23.5701 19.6068 23.0637 18.1359 22.7993 17.1596L20.8688 17.6824ZM25.4535 24.6926C26.3017 24.9898 27.6347 25.3502 28.896 25.4572C29.5241 25.5105 30.1921 25.5063 30.7943 25.367C31.3922 25.2287 32.0523 24.925 32.4549 24.2762L30.7556 23.2216C30.7424 23.2428 30.6662 23.3438 30.3437 23.4184C30.0255 23.492 29.5891 23.5088 29.065 23.4643C28.0222 23.3759 26.8604 23.0663 26.1147 22.8051L25.4535 24.6926ZM32.4359 24.3056C32.967 23.5132 33.7721 22.2427 34.4692 20.993C34.8174 20.3687 35.1461 19.7364 35.4012 19.1641C35.6451 18.617 35.8629 18.0361 35.924 17.5442L33.9392 17.2979C33.9171 17.4759 33.8075 17.8271 33.5745 18.3498C33.3528 18.8473 33.0551 19.4224 32.7225 20.0187C32.0579 21.2102 31.283 22.4336 30.7746 23.1921L32.4359 24.3056ZM35.924 17.5442C35.9705 17.1697 36.0405 16.9849 36.0744 16.9278C36.0856 16.9089 36.058 16.9648 35.9651 17.0189C35.8561 17.0824 35.7365 17.0975 35.6492 17.0851C35.5463 17.0706 35.652 17.0479 35.9905 17.4037C36.2974 17.7261 36.6978 18.2552 37.2004 19.065L38.8998 18.0104C38.3628 17.1452 37.8797 16.4878 37.4394 16.025C37.0309 15.5957 36.5258 15.1892 35.9291 15.1048C35.595 15.0576 35.2577 15.1163 34.958 15.291C34.6742 15.4564 34.4826 15.691 34.3541 15.9077C34.1086 16.3217 33.9967 16.8348 33.9392 17.2979L35.924 17.5442ZM38.9702 18.9293L40.6334 15.0209L38.7931 14.2378L37.1299 18.1461L38.9702 18.9293ZM39.0463 15.3744L42.1647 18.1661L43.4987 16.676L40.3803 13.8843L39.0463 15.3744ZM43.7274 17.8657C44.5105 16.2883 46.3206 13.5796 48.5413 11.2753C49.6484 10.1265 50.8309 9.10634 52.0103 8.37913C53.1974 7.64716 54.3126 7.25422 55.3056 7.25422V5.25422C53.8038 5.25422 52.3203 5.83837 50.9606 6.67674C49.5933 7.51986 48.281 8.66323 47.1012 9.88743C44.7482 12.329 42.8161 15.2037 41.936 16.9763L43.7274 17.8657ZM54.4435 6.76104C54.8967 7.53176 55.8281 8.46197 57.1978 8.73745C58.6183 9.02314 60.2607 8.55783 62.0016 6.99928L60.6676 5.50916C59.2486 6.77954 58.2229 6.90358 57.5921 6.77672C56.9106 6.63965 56.4075 6.1554 56.1676 5.7474L54.4435 6.76104Z" fill="#D70909"/>
<path d="M0.66871 10.8686C0.647452 11.4204 1.0776 11.8851 1.62948 11.9063C2.18135 11.9276 2.64597 11.4974 2.66723 10.9455L0.66871 10.8686ZM7.697 5.50977L8.04971 4.57403L7.87921 4.50977H7.697V5.50977ZM11.4392 10.9071L10.4406 10.8539L10.4363 10.9348L10.445 11.0154L11.4392 10.9071ZM2.66723 10.9455C2.69507 10.2227 2.98129 9.09306 3.73727 8.16554C4.45977 7.2791 5.66263 6.50977 7.697 6.50977V4.50977C5.07447 4.50977 3.29745 5.53953 2.18699 6.90196C1.11001 8.22331 0.710164 9.79235 0.66871 10.8686L2.66723 10.9455ZM7.34429 6.4455C7.86825 6.643 8.70311 7.1236 9.37469 7.88399C10.0306 8.62664 10.507 9.60425 10.4406 10.8539L12.4377 10.9602C12.5376 9.08315 11.8013 7.61027 10.8737 6.56003C9.96182 5.52752 8.84244 4.87284 8.04971 4.57403L7.34429 6.4455ZM10.445 11.0154L11.2766 18.646L13.2649 18.4294L12.4333 10.7987L10.445 11.0154Z" fill="#28A745"/>
<path d="M39.714 14.629L40.381 13.8839L39.3406 12.9526L38.7938 14.2374L39.714 14.629ZM42.8324 17.4207L42.1654 18.1658L43.144 19.0418L43.7281 17.8654L42.8324 17.4207ZM55.3063 6.25391L56.1683 5.74709L55.8784 5.25391H55.3063V6.25391ZM56.002 6.25391C56.002 9.19942 58.3898 11.5872 61.3353 11.5872C64.2808 11.5872 66.6687 9.19942 66.6687 6.25391C66.6687 3.30839 64.2808 0.920573 61.3353 0.920573C58.3898 0.920573 56.002 3.30839 56.002 6.25391ZM38.9709 18.929L40.6341 15.0206L38.7938 14.2374L37.1306 18.1458L38.9709 18.929ZM39.047 15.3741L42.1654 18.1658L43.4994 16.6756L40.381 13.8839L39.047 15.3741ZM43.7281 17.8654C44.5113 16.288 46.3213 13.5793 48.542 11.275C49.6491 10.1262 50.8316 9.10603 52.011 8.37881C53.1981 7.64685 54.3133 7.25391 55.3063 7.25391V5.25391C53.8045 5.25391 52.321 5.83806 50.9613 6.67642C49.594 7.51954 48.2817 8.66291 47.1019 9.88712C44.7489 12.3287 42.8168 15.2034 41.9367 16.976L43.7281 17.8654ZM54.4442 6.76072C54.8974 7.53145 55.8288 8.46166 57.1985 8.73714C58.619 9.02283 60.2614 8.55751 62.0023 6.99897L60.6683 5.50884C59.2493 6.77922 58.2236 6.90327 57.5928 6.7764C56.9113 6.63934 56.4082 6.15508 56.1683 5.74709L54.4442 6.76072Z" fill="#28A745"/>
</svg>
