<svg width="587" height="94" viewBox="0 0 587 94" fill="none" xmlns="http://www.w3.org/2000/svg">
<path d="M25.4393 61.2056C25.2118 57.086 28.9466 49.3388 45.7053 51.3069H219.843C223.437 51.463 230.624 49.5612 230.624 40.7051C230.965 44.239 233.394 51.3069 240.382 51.3069H424.823C428.371 51.2093 435.672 53.0525 436.491 61.2056" stroke="url(#paint0_linear_11457_16756)" stroke-width="12"/>
<rect x="0.5" y="1.33398" width="87" height="23" fill="white"/>
<rect x="0.5" y="1.33398" width="87" height="23" stroke="#C8C8C8"/>
<path d="M9.34747 8.46998V13.762C9.34747 14.506 9.52747 15.058 9.88747 15.418C10.2555 15.778 10.7635 15.958 11.4115 15.958C12.0515 15.958 12.5515 15.778 12.9115 15.418C13.2795 15.058 13.4635 14.506 13.4635 13.762V8.46998H14.5555V13.75C14.5555 14.446 14.4155 15.034 14.1355 15.514C13.8555 15.986 13.4755 16.338 12.9955 16.57C12.5235 16.802 11.9915 16.918 11.3995 16.918C10.8075 16.918 10.2715 16.802 9.79147 16.57C9.31947 16.338 8.94347 15.986 8.66347 15.514C8.39147 15.034 8.25547 14.446 8.25547 13.75V8.46998H9.34747ZM19.5811 10.138C20.3811 10.138 21.0291 10.382 21.5251 10.87C22.0211 11.35 22.2691 12.046 22.2691 12.958V16.834H21.1891V13.114C21.1891 12.458 21.0251 11.958 20.6971 11.614C20.3691 11.262 19.9211 11.086 19.3531 11.086C18.7771 11.086 18.3171 11.266 17.9731 11.626C17.6371 11.986 17.4691 12.51 17.4691 13.198V16.834H16.3771V10.258H17.4691V11.194C17.6851 10.858 17.9771 10.598 18.3451 10.414C18.7211 10.23 19.1331 10.138 19.5811 10.138ZM23.6449 13.522C23.6449 12.85 23.7809 12.262 24.0529 11.758C24.3249 11.246 24.6969 10.85 25.1689 10.57C25.6489 10.29 26.1849 10.15 26.7769 10.15C27.2889 10.15 27.7649 10.27 28.2049 10.51C28.6449 10.742 28.9809 11.05 29.2129 11.434V7.95398H30.3169V16.834H29.2129V15.598C28.9969 15.99 28.6769 16.314 28.2529 16.57C27.8289 16.818 27.3329 16.942 26.7649 16.942C26.1809 16.942 25.6489 16.798 25.1689 16.51C24.6969 16.222 24.3249 15.818 24.0529 15.298C23.7809 14.778 23.6449 14.186 23.6449 13.522ZM29.2129 13.534C29.2129 13.038 29.1129 12.606 28.9129 12.238C28.7129 11.87 28.4409 11.59 28.0969 11.398C27.7609 11.198 27.3889 11.098 26.9809 11.098C26.5729 11.098 26.2009 11.194 25.8649 11.386C25.5289 11.578 25.2609 11.858 25.0609 12.226C24.8609 12.594 24.7609 13.026 24.7609 13.522C24.7609 14.026 24.8609 14.466 25.0609 14.842C25.2609 15.21 25.5289 15.494 25.8649 15.694C26.2009 15.886 26.5729 15.982 26.9809 15.982C27.3889 15.982 27.7609 15.886 28.0969 15.694C28.4409 15.494 28.7129 15.21 28.9129 14.842C29.1129 14.466 29.2129 14.03 29.2129 13.534ZM38.1623 13.294C38.1623 13.502 38.1503 13.722 38.1263 13.954H32.8703C32.9103 14.602 33.1303 15.11 33.5303 15.478C33.9383 15.838 34.4303 16.018 35.0063 16.018C35.4783 16.018 35.8703 15.91 36.1823 15.694C36.5023 15.47 36.7263 15.174 36.8543 14.806H38.0303C37.8543 15.438 37.5023 15.954 36.9743 16.354C36.4463 16.746 35.7903 16.942 35.0063 16.942C34.3823 16.942 33.8223 16.802 33.3263 16.522C32.8383 16.242 32.4543 15.846 32.1743 15.334C31.8943 14.814 31.7543 14.214 31.7543 13.534C31.7543 12.854 31.8903 12.258 32.1623 11.746C32.4343 11.234 32.8143 10.842 33.3023 10.57C33.7983 10.29 34.3663 10.15 35.0063 10.15C35.6303 10.15 36.1823 10.286 36.6623 10.558C37.1423 10.83 37.5103 11.206 37.7663 11.686C38.0303 12.158 38.1623 12.694 38.1623 13.294ZM37.0343 13.066C37.0343 12.65 36.9423 12.294 36.7583 11.998C36.5743 11.694 36.3223 11.466 36.0023 11.314C35.6903 11.154 35.3423 11.074 34.9583 11.074C34.4063 11.074 33.9343 11.25 33.5423 11.602C33.1583 11.954 32.9383 12.442 32.8823 13.066H37.0343ZM40.6957 11.326C40.8877 10.95 41.1597 10.658 41.5117 10.45C41.8717 10.242 42.3077 10.138 42.8197 10.138V11.266H42.5317C41.3077 11.266 40.6957 11.93 40.6957 13.258V16.834H39.6037V10.258H40.6957V11.326ZM54.1915 8.46998L51.0355 16.834H49.7755L46.6195 8.46998H47.7835L50.4115 15.682L53.0395 8.46998H54.1915ZM54.9808 13.522C54.9808 12.85 55.1168 12.262 55.3888 11.758C55.6608 11.246 56.0328 10.85 56.5048 10.57C56.9848 10.29 57.5168 10.15 58.1008 10.15C58.6768 10.15 59.1768 10.274 59.6008 10.522C60.0248 10.77 60.3408 11.082 60.5488 11.458V10.258H61.6528V16.834H60.5488V15.61C60.3328 15.994 60.0088 16.314 59.5768 16.57C59.1528 16.818 58.6568 16.942 58.0888 16.942C57.5048 16.942 56.9768 16.798 56.5048 16.51C56.0328 16.222 55.6608 15.818 55.3888 15.298C55.1168 14.778 54.9808 14.186 54.9808 13.522ZM60.5488 13.534C60.5488 13.038 60.4488 12.606 60.2488 12.238C60.0488 11.87 59.7768 11.59 59.4328 11.398C59.0968 11.198 58.7248 11.098 58.3168 11.098C57.9088 11.098 57.5368 11.194 57.2008 11.386C56.8648 11.578 56.5968 11.858 56.3968 12.226C56.1968 12.594 56.0968 13.026 56.0968 13.522C56.0968 14.026 56.1968 14.466 56.3968 14.842C56.5968 15.21 56.8648 15.494 57.2008 15.694C57.5368 15.886 57.9088 15.982 58.3168 15.982C58.7248 15.982 59.0968 15.886 59.4328 15.694C59.7768 15.494 60.0488 15.21 60.2488 14.842C60.4488 14.466 60.5488 14.03 60.5488 13.534ZM64.5902 7.95398V16.834H63.4982V7.95398H64.5902ZM72.2833 10.258V16.834H71.1913V15.862C70.9833 16.198 70.6913 16.462 70.3153 16.654C69.9473 16.838 69.5393 16.93 69.0913 16.93C68.5793 16.93 68.1193 16.826 67.7113 16.618C67.3033 16.402 66.9793 16.082 66.7393 15.658C66.5073 15.234 66.3913 14.718 66.3913 14.11V10.258H67.4713V13.966C67.4713 14.614 67.6353 15.114 67.9633 15.466C68.2913 15.81 68.7393 15.982 69.3073 15.982C69.8913 15.982 70.3513 15.802 70.6873 15.442C71.0233 15.082 71.1913 14.558 71.1913 13.87V10.258H72.2833ZM80.1271 13.294C80.1271 13.502 80.1151 13.722 80.0911 13.954H74.8351C74.8751 14.602 75.0951 15.11 75.4951 15.478C75.9031 15.838 76.3951 16.018 76.9711 16.018C77.4431 16.018 77.8351 15.91 78.1471 15.694C78.4671 15.47 78.6911 15.174 78.8191 14.806H79.9951C79.8191 15.438 79.4671 15.954 78.9391 16.354C78.4111 16.746 77.7551 16.942 76.9711 16.942C76.3471 16.942 75.7871 16.802 75.2911 16.522C74.8031 16.242 74.4191 15.846 74.1391 15.334C73.8591 14.814 73.7191 14.214 73.7191 13.534C73.7191 12.854 73.8551 12.258 74.1271 11.746C74.3991 11.234 74.7791 10.842 75.2671 10.57C75.7631 10.29 76.3311 10.15 76.9711 10.15C77.5951 10.15 78.1471 10.286 78.6271 10.558C79.1071 10.83 79.4751 11.206 79.7311 11.686C79.9951 12.158 80.1271 12.694 80.1271 13.294ZM78.9991 13.066C78.9991 12.65 78.9071 12.294 78.7231 11.998C78.5391 11.694 78.2871 11.466 77.9671 11.314C77.6551 11.154 77.3071 11.074 76.9231 11.074C76.3711 11.074 75.8991 11.25 75.5071 11.602C75.1231 11.954 74.9031 12.442 74.8471 13.066H78.9991Z" fill="#FFD700"/>
<rect x="187.5" y="1.33398" width="87" height="23" stroke="#C8C8C8"/>
<path d="M207.115 8.46998V9.35798H203.479V12.178H206.431V13.066H203.479V16.834H202.387V8.46998H207.115ZM208.026 13.522C208.026 12.85 208.162 12.262 208.434 11.758C208.706 11.246 209.078 10.85 209.55 10.57C210.03 10.29 210.562 10.15 211.146 10.15C211.722 10.15 212.222 10.274 212.646 10.522C213.07 10.77 213.386 11.082 213.594 11.458V10.258H214.698V16.834H213.594V15.61C213.378 15.994 213.054 16.314 212.622 16.57C212.198 16.818 211.702 16.942 211.134 16.942C210.55 16.942 210.022 16.798 209.55 16.51C209.078 16.222 208.706 15.818 208.434 15.298C208.162 14.778 208.026 14.186 208.026 13.522ZM213.594 13.534C213.594 13.038 213.494 12.606 213.294 12.238C213.094 11.87 212.822 11.59 212.478 11.398C212.142 11.198 211.77 11.098 211.362 11.098C210.954 11.098 210.582 11.194 210.246 11.386C209.91 11.578 209.642 11.858 209.442 12.226C209.242 12.594 209.142 13.026 209.142 13.522C209.142 14.026 209.242 14.466 209.442 14.842C209.642 15.21 209.91 15.494 210.246 15.694C210.582 15.886 210.954 15.982 211.362 15.982C211.77 15.982 212.142 15.886 212.478 15.694C212.822 15.494 213.094 15.21 213.294 14.842C213.494 14.466 213.594 14.03 213.594 13.534ZM217.107 9.18998C216.899 9.18998 216.723 9.11798 216.579 8.97398C216.435 8.82998 216.363 8.65398 216.363 8.44598C216.363 8.23798 216.435 8.06198 216.579 7.91798C216.723 7.77398 216.899 7.70198 217.107 7.70198C217.307 7.70198 217.475 7.77398 217.611 7.91798C217.755 8.06198 217.827 8.23798 217.827 8.44598C217.827 8.65398 217.755 8.82998 217.611 8.97398C217.475 9.11798 217.307 9.18998 217.107 9.18998ZM217.635 10.258V16.834H216.543V10.258H217.635ZM220.588 11.326C220.78 10.95 221.052 10.658 221.404 10.45C221.764 10.242 222.2 10.138 222.712 10.138V11.266H222.424C221.2 11.266 220.588 11.93 220.588 13.258V16.834H219.496V10.258H220.588V11.326ZM234.084 8.46998L230.928 16.834H229.668L226.512 8.46998H227.676L230.304 15.682L232.932 8.46998H234.084ZM234.873 13.522C234.873 12.85 235.009 12.262 235.281 11.758C235.553 11.246 235.925 10.85 236.397 10.57C236.877 10.29 237.409 10.15 237.993 10.15C238.569 10.15 239.069 10.274 239.493 10.522C239.917 10.77 240.233 11.082 240.441 11.458V10.258H241.545V16.834H240.441V15.61C240.225 15.994 239.901 16.314 239.469 16.57C239.045 16.818 238.549 16.942 237.981 16.942C237.397 16.942 236.869 16.798 236.397 16.51C235.925 16.222 235.553 15.818 235.281 15.298C235.009 14.778 234.873 14.186 234.873 13.522ZM240.441 13.534C240.441 13.038 240.341 12.606 240.141 12.238C239.941 11.87 239.669 11.59 239.325 11.398C238.989 11.198 238.617 11.098 238.209 11.098C237.801 11.098 237.429 11.194 237.093 11.386C236.757 11.578 236.489 11.858 236.289 12.226C236.089 12.594 235.989 13.026 235.989 13.522C235.989 14.026 236.089 14.466 236.289 14.842C236.489 15.21 236.757 15.494 237.093 15.694C237.429 15.886 237.801 15.982 238.209 15.982C238.617 15.982 238.989 15.886 239.325 15.694C239.669 15.494 239.941 15.21 240.141 14.842C240.341 14.466 240.441 14.03 240.441 13.534ZM244.483 7.95398V16.834H243.391V7.95398H244.483ZM252.176 10.258V16.834H251.084V15.862C250.876 16.198 250.584 16.462 250.208 16.654C249.84 16.838 249.432 16.93 248.984 16.93C248.472 16.93 248.012 16.826 247.604 16.618C247.196 16.402 246.872 16.082 246.632 15.658C246.4 15.234 246.284 14.718 246.284 14.11V10.258H247.364V13.966C247.364 14.614 247.528 15.114 247.856 15.466C248.184 15.81 248.632 15.982 249.2 15.982C249.784 15.982 250.244 15.802 250.58 15.442C250.916 15.082 251.084 14.558 251.084 13.87V10.258H252.176ZM260.02 13.294C260.02 13.502 260.008 13.722 259.984 13.954H254.728C254.768 14.602 254.988 15.11 255.388 15.478C255.796 15.838 256.288 16.018 256.864 16.018C257.336 16.018 257.728 15.91 258.04 15.694C258.36 15.47 258.584 15.174 258.712 14.806H259.888C259.712 15.438 259.36 15.954 258.832 16.354C258.304 16.746 257.648 16.942 256.864 16.942C256.24 16.942 255.68 16.802 255.184 16.522C254.696 16.242 254.312 15.846 254.032 15.334C253.752 14.814 253.612 14.214 253.612 13.534C253.612 12.854 253.748 12.258 254.02 11.746C254.292 11.234 254.672 10.842 255.16 10.57C255.656 10.29 256.224 10.15 256.864 10.15C257.488 10.15 258.04 10.286 258.52 10.558C259 10.83 259.368 11.206 259.624 11.686C259.888 12.158 260.02 12.694 260.02 13.294ZM258.892 13.066C258.892 12.65 258.8 12.294 258.616 11.998C258.432 11.694 258.18 11.466 257.86 11.314C257.548 11.154 257.2 11.074 256.816 11.074C256.264 11.074 255.792 11.25 255.4 11.602C255.016 11.954 254.796 12.442 254.74 13.066H258.892Z" fill="#28A745"/>
<rect x="374.5" y="1.33398" width="87" height="23" stroke="#C8C8C8"/>
<path d="M389.933 16.918C389.157 16.918 388.449 16.738 387.809 16.378C387.169 16.01 386.661 15.502 386.285 14.854C385.917 14.198 385.733 13.462 385.733 12.646C385.733 11.83 385.917 11.098 386.285 10.45C386.661 9.79398 387.169 9.28598 387.809 8.92598C388.449 8.55798 389.157 8.37398 389.933 8.37398C390.717 8.37398 391.429 8.55798 392.069 8.92598C392.709 9.28598 393.213 9.78998 393.581 10.438C393.949 11.086 394.133 11.822 394.133 12.646C394.133 13.47 393.949 14.206 393.581 14.854C393.213 15.502 392.709 16.01 392.069 16.378C391.429 16.738 390.717 16.918 389.933 16.918ZM389.933 15.97C390.517 15.97 391.041 15.834 391.505 15.562C391.977 15.29 392.345 14.902 392.609 14.398C392.881 13.894 393.017 13.31 393.017 12.646C393.017 11.974 392.881 11.39 392.609 10.894C392.345 10.39 391.981 10.002 391.517 9.72998C391.053 9.45798 390.525 9.32198 389.933 9.32198C389.341 9.32198 388.813 9.45798 388.349 9.72998C387.885 10.002 387.517 10.39 387.245 10.894C386.981 11.39 386.849 11.974 386.849 12.646C386.849 13.31 386.981 13.894 387.245 14.398C387.517 14.902 387.885 15.29 388.349 15.562C388.821 15.834 389.349 15.97 389.933 15.97ZM398.022 15.826L400.062 10.258H401.226L398.646 16.834H397.374L394.794 10.258H395.97L398.022 15.826ZM408.301 13.294C408.301 13.502 408.289 13.722 408.265 13.954H403.009C403.049 14.602 403.269 15.11 403.669 15.478C404.077 15.838 404.569 16.018 405.145 16.018C405.617 16.018 406.009 15.91 406.321 15.694C406.641 15.47 406.865 15.174 406.993 14.806H408.169C407.993 15.438 407.641 15.954 407.113 16.354C406.585 16.746 405.929 16.942 405.145 16.942C404.521 16.942 403.961 16.802 403.465 16.522C402.977 16.242 402.593 15.846 402.313 15.334C402.033 14.814 401.893 14.214 401.893 13.534C401.893 12.854 402.029 12.258 402.301 11.746C402.573 11.234 402.953 10.842 403.441 10.57C403.937 10.29 404.505 10.15 405.145 10.15C405.769 10.15 406.321 10.286 406.801 10.558C407.281 10.83 407.649 11.206 407.905 11.686C408.169 12.158 408.301 12.694 408.301 13.294ZM407.173 13.066C407.173 12.65 407.081 12.294 406.897 11.998C406.713 11.694 406.461 11.466 406.141 11.314C405.829 11.154 405.481 11.074 405.097 11.074C404.545 11.074 404.073 11.25 403.681 11.602C403.297 11.954 403.077 12.442 403.021 13.066H407.173ZM410.834 11.326C411.026 10.95 411.298 10.658 411.65 10.45C412.01 10.242 412.446 10.138 412.958 10.138V11.266H412.67C411.446 11.266 410.834 11.93 410.834 13.258V16.834H409.742V10.258H410.834V11.326ZM424.33 8.46998L421.174 16.834H419.914L416.758 8.46998H417.922L420.55 15.682L423.178 8.46998H424.33ZM425.12 13.522C425.12 12.85 425.256 12.262 425.528 11.758C425.8 11.246 426.172 10.85 426.644 10.57C427.124 10.29 427.656 10.15 428.24 10.15C428.816 10.15 429.316 10.274 429.74 10.522C430.164 10.77 430.48 11.082 430.688 11.458V10.258H431.792V16.834H430.688V15.61C430.472 15.994 430.148 16.314 429.716 16.57C429.292 16.818 428.796 16.942 428.228 16.942C427.644 16.942 427.116 16.798 426.644 16.51C426.172 16.222 425.8 15.818 425.528 15.298C425.256 14.778 425.12 14.186 425.12 13.522ZM430.688 13.534C430.688 13.038 430.588 12.606 430.388 12.238C430.188 11.87 429.916 11.59 429.572 11.398C429.236 11.198 428.864 11.098 428.456 11.098C428.048 11.098 427.676 11.194 427.34 11.386C427.004 11.578 426.736 11.858 426.536 12.226C426.336 12.594 426.236 13.026 426.236 13.522C426.236 14.026 426.336 14.466 426.536 14.842C426.736 15.21 427.004 15.494 427.34 15.694C427.676 15.886 428.048 15.982 428.456 15.982C428.864 15.982 429.236 15.886 429.572 15.694C429.916 15.494 430.188 15.21 430.388 14.842C430.588 14.466 430.688 14.03 430.688 13.534ZM434.729 7.95398V16.834H433.637V7.95398H434.729ZM442.422 10.258V16.834H441.33V15.862C441.122 16.198 440.83 16.462 440.454 16.654C440.086 16.838 439.678 16.93 439.23 16.93C438.718 16.93 438.258 16.826 437.85 16.618C437.442 16.402 437.118 16.082 436.878 15.658C436.646 15.234 436.53 14.718 436.53 14.11V10.258H437.61V13.966C437.61 14.614 437.774 15.114 438.102 15.466C438.43 15.81 438.878 15.982 439.446 15.982C440.03 15.982 440.49 15.802 440.826 15.442C441.162 15.082 441.33 14.558 441.33 13.87V10.258H442.422ZM450.266 13.294C450.266 13.502 450.254 13.722 450.23 13.954H444.974C445.014 14.602 445.234 15.11 445.634 15.478C446.042 15.838 446.534 16.018 447.11 16.018C447.582 16.018 447.974 15.91 448.286 15.694C448.606 15.47 448.83 15.174 448.958 14.806H450.134C449.958 15.438 449.606 15.954 449.078 16.354C448.55 16.746 447.894 16.942 447.11 16.942C446.486 16.942 445.926 16.802 445.43 16.522C444.942 16.242 444.558 15.846 444.278 15.334C443.998 14.814 443.858 14.214 443.858 13.534C443.858 12.854 443.994 12.258 444.266 11.746C444.538 11.234 444.918 10.842 445.406 10.57C445.902 10.29 446.47 10.15 447.11 10.15C447.734 10.15 448.286 10.286 448.766 10.558C449.246 10.83 449.614 11.206 449.87 11.686C450.134 12.158 450.266 12.694 450.266 13.294ZM449.138 13.066C449.138 12.65 449.046 12.294 448.862 11.998C448.678 11.694 448.426 11.466 448.106 11.314C447.794 11.154 447.446 11.074 447.062 11.074C446.51 11.074 446.038 11.25 445.646 11.602C445.262 11.954 445.042 12.442 444.986 13.066H449.138Z" fill="#FF5733"/>
<path d="M345.822 88.542C345.822 88.926 345.726 89.294 345.534 89.646C345.342 89.99 345.058 90.278 344.682 90.51C344.314 90.742 343.87 90.874 343.35 90.906V91.878H342.702V90.906C341.974 90.842 341.382 90.61 340.926 90.21C340.47 89.802 340.238 89.286 340.23 88.662H341.394C341.426 88.998 341.55 89.29 341.766 89.538C341.99 89.786 342.302 89.942 342.702 90.006V87.006C342.166 86.87 341.734 86.73 341.406 86.586C341.078 86.442 340.798 86.218 340.566 85.914C340.334 85.61 340.218 85.202 340.218 84.69C340.218 84.042 340.442 83.506 340.89 83.082C341.346 82.658 341.95 82.422 342.702 82.374V81.378H343.35V82.374C344.03 82.43 344.578 82.65 344.994 83.034C345.41 83.41 345.65 83.902 345.714 84.51H344.55C344.51 84.23 344.386 83.978 344.178 83.754C343.97 83.522 343.694 83.37 343.35 83.298V86.226C343.878 86.362 344.306 86.502 344.634 86.646C344.97 86.782 345.25 87.002 345.474 87.306C345.706 87.61 345.822 88.022 345.822 88.542ZM341.334 84.63C341.334 85.022 341.45 85.322 341.682 85.53C341.914 85.738 342.254 85.91 342.702 86.046V83.274C342.286 83.314 341.954 83.45 341.706 83.682C341.458 83.906 341.334 84.222 341.334 84.63ZM343.35 90.018C343.782 89.97 344.118 89.814 344.358 89.55C344.606 89.286 344.73 88.97 344.73 88.602C344.73 88.21 344.61 87.91 344.37 87.702C344.13 87.486 343.79 87.314 343.35 87.186V90.018ZM347.418 83.154V82.158H349.674V90.834H348.57V83.154H347.418ZM357.082 83.106H352.87V85.842C353.054 85.586 353.326 85.378 353.686 85.218C354.046 85.05 354.434 84.966 354.85 84.966C355.514 84.966 356.054 85.106 356.47 85.386C356.886 85.658 357.182 86.014 357.358 86.454C357.542 86.886 357.634 87.346 357.634 87.834C357.634 88.41 357.526 88.926 357.31 89.382C357.094 89.838 356.762 90.198 356.314 90.462C355.874 90.726 355.326 90.858 354.67 90.858C353.83 90.858 353.15 90.642 352.63 90.21C352.11 89.778 351.794 89.202 351.682 88.482H352.75C352.854 88.938 353.074 89.294 353.41 89.55C353.746 89.806 354.17 89.934 354.682 89.934C355.314 89.934 355.79 89.746 356.11 89.37C356.43 88.986 356.59 88.482 356.59 87.858C356.59 87.234 356.43 86.754 356.11 86.418C355.79 86.074 355.318 85.902 354.694 85.902C354.27 85.902 353.898 86.006 353.578 86.214C353.266 86.414 353.038 86.69 352.894 87.042H351.862V82.146H357.082V83.106ZM359.085 86.406C359.085 85.03 359.309 83.958 359.757 83.19C360.205 82.414 360.989 82.026 362.109 82.026C363.221 82.026 364.001 82.414 364.449 83.19C364.897 83.958 365.121 85.03 365.121 86.406C365.121 87.806 364.897 88.894 364.449 89.67C364.001 90.446 363.221 90.834 362.109 90.834C360.989 90.834 360.205 90.446 359.757 89.67C359.309 88.894 359.085 87.806 359.085 86.406ZM364.041 86.406C364.041 85.71 363.993 85.122 363.897 84.642C363.809 84.154 363.621 83.762 363.333 83.466C363.053 83.17 362.645 83.022 362.109 83.022C361.565 83.022 361.149 83.17 360.861 83.466C360.581 83.762 360.393 84.154 360.297 84.642C360.209 85.122 360.165 85.71 360.165 86.406C360.165 87.126 360.209 87.73 360.297 88.218C360.393 88.706 360.581 89.098 360.861 89.394C361.149 89.69 361.565 89.838 362.109 89.838C362.645 89.838 363.053 89.69 363.333 89.394C363.621 89.098 363.809 88.706 363.897 88.218C363.993 87.73 364.041 87.126 364.041 86.406Z" fill="#FF5733"/>
<path d="M223.822 88.542C223.822 88.926 223.726 89.294 223.534 89.646C223.342 89.99 223.058 90.278 222.682 90.51C222.314 90.742 221.87 90.874 221.35 90.906V91.878H220.702V90.906C219.974 90.842 219.382 90.61 218.926 90.21C218.47 89.802 218.238 89.286 218.23 88.662H219.394C219.426 88.998 219.55 89.29 219.766 89.538C219.99 89.786 220.302 89.942 220.702 90.006V87.006C220.166 86.87 219.734 86.73 219.406 86.586C219.078 86.442 218.798 86.218 218.566 85.914C218.334 85.61 218.218 85.202 218.218 84.69C218.218 84.042 218.442 83.506 218.89 83.082C219.346 82.658 219.95 82.422 220.702 82.374V81.378H221.35V82.374C222.03 82.43 222.578 82.65 222.994 83.034C223.41 83.41 223.65 83.902 223.714 84.51H222.55C222.51 84.23 222.386 83.978 222.178 83.754C221.97 83.522 221.694 83.37 221.35 83.298V86.226C221.878 86.362 222.306 86.502 222.634 86.646C222.97 86.782 223.25 87.002 223.474 87.306C223.706 87.61 223.822 88.022 223.822 88.542ZM219.334 84.63C219.334 85.022 219.45 85.322 219.682 85.53C219.914 85.738 220.254 85.91 220.702 86.046V83.274C220.286 83.314 219.954 83.45 219.706 83.682C219.458 83.906 219.334 84.222 219.334 84.63ZM221.35 90.018C221.782 89.97 222.118 89.814 222.358 89.55C222.606 89.286 222.73 88.97 222.73 88.602C222.73 88.21 222.61 87.91 222.37 87.702C222.13 87.486 221.79 87.314 221.35 87.186V90.018ZM225.418 83.154V82.158H227.674V90.834H226.57V83.154H225.418ZM229.55 86.406C229.55 85.03 229.774 83.958 230.222 83.19C230.67 82.414 231.454 82.026 232.574 82.026C233.686 82.026 234.466 82.414 234.914 83.19C235.362 83.958 235.586 85.03 235.586 86.406C235.586 87.806 235.362 88.894 234.914 89.67C234.466 90.446 233.686 90.834 232.574 90.834C231.454 90.834 230.67 90.446 230.222 89.67C229.774 88.894 229.55 87.806 229.55 86.406ZM234.506 86.406C234.506 85.71 234.458 85.122 234.362 84.642C234.274 84.154 234.086 83.762 233.798 83.466C233.518 83.17 233.11 83.022 232.574 83.022C232.03 83.022 231.614 83.17 231.326 83.466C231.046 83.762 230.858 84.154 230.762 84.642C230.674 85.122 230.63 85.71 230.63 86.406C230.63 87.126 230.674 87.73 230.762 88.218C230.858 88.706 231.046 89.098 231.326 89.394C231.614 89.69 232.03 89.838 232.574 89.838C233.11 89.838 233.518 89.69 233.798 89.394C234.086 89.098 234.274 88.706 234.362 88.218C234.458 87.73 234.506 87.126 234.506 86.406ZM237.085 86.406C237.085 85.03 237.309 83.958 237.757 83.19C238.205 82.414 238.989 82.026 240.109 82.026C241.221 82.026 242.001 82.414 242.449 83.19C242.897 83.958 243.121 85.03 243.121 86.406C243.121 87.806 242.897 88.894 242.449 89.67C242.001 90.446 241.221 90.834 240.109 90.834C238.989 90.834 238.205 90.446 237.757 89.67C237.309 88.894 237.085 87.806 237.085 86.406ZM242.041 86.406C242.041 85.71 241.993 85.122 241.897 84.642C241.809 84.154 241.621 83.762 241.333 83.466C241.053 83.17 240.645 83.022 240.109 83.022C239.565 83.022 239.149 83.17 238.861 83.466C238.581 83.762 238.393 84.154 238.297 84.642C238.209 85.122 238.165 85.71 238.165 86.406C238.165 87.126 238.209 87.73 238.297 88.218C238.393 88.706 238.581 89.098 238.861 89.394C239.149 89.69 239.565 89.838 240.109 89.838C240.645 89.838 241.053 89.69 241.333 89.394C241.621 89.098 241.809 88.706 241.897 88.218C241.993 87.73 242.041 87.126 242.041 86.406Z" fill="black"/>
<rect x="461.5" y="41.334" width="125" height="52" rx="3.5" stroke="#C8C8C8"/>
<path d="M513.868 49.714H507.168V53.694C507.448 53.3207 507.861 53.0073 508.408 52.754C508.968 52.5007 509.561 52.374 510.188 52.374C511.308 52.374 512.214 52.614 512.908 53.094C513.614 53.574 514.114 54.1807 514.408 54.914C514.714 55.6473 514.868 56.4207 514.868 57.234C514.868 58.2207 514.674 59.1007 514.288 59.874C513.914 60.634 513.348 61.234 512.588 61.674C511.841 62.114 510.921 62.334 509.828 62.334C508.374 62.334 507.208 61.974 506.328 61.254C505.448 60.534 504.921 59.5807 504.748 58.394H506.968C507.114 59.0207 507.441 59.5207 507.948 59.894C508.454 60.254 509.088 60.434 509.848 60.434C510.794 60.434 511.501 60.1473 511.968 59.574C512.448 59.0007 512.688 58.2407 512.688 57.294C512.688 56.334 512.448 55.6007 511.968 55.094C511.488 54.574 510.781 54.314 509.848 54.314C509.194 54.314 508.641 54.4807 508.188 54.814C507.748 55.134 507.428 55.574 507.228 56.134H505.068V47.714H513.868V49.714ZM517.241 54.854C517.241 52.5473 517.628 50.7473 518.401 49.454C519.188 48.1473 520.534 47.494 522.441 47.494C524.348 47.494 525.688 48.1473 526.461 49.454C527.248 50.7473 527.641 52.5473 527.641 54.854C527.641 57.1873 527.248 59.014 526.461 60.334C525.688 61.6407 524.348 62.294 522.441 62.294C520.534 62.294 519.188 61.6407 518.401 60.334C517.628 59.014 517.241 57.1873 517.241 54.854ZM525.401 54.854C525.401 53.774 525.328 52.8607 525.181 52.114C525.048 51.3673 524.768 50.7607 524.341 50.294C523.914 49.814 523.281 49.574 522.441 49.574C521.601 49.574 520.968 49.814 520.541 50.294C520.114 50.7607 519.828 51.3673 519.681 52.114C519.548 52.8607 519.481 53.774 519.481 54.854C519.481 55.974 519.548 56.914 519.681 57.674C519.814 58.434 520.094 59.0473 520.521 59.514C520.961 59.9807 521.601 60.214 522.441 60.214C523.281 60.214 523.914 59.9807 524.341 59.514C524.781 59.0473 525.068 58.434 525.201 57.674C525.334 56.914 525.401 55.974 525.401 54.854ZM529.694 51.274C529.694 50.3007 529.974 49.5407 530.534 48.994C531.107 48.434 531.84 48.154 532.734 48.154C533.627 48.154 534.354 48.434 534.914 48.994C535.487 49.5407 535.774 50.3007 535.774 51.274C535.774 52.2473 535.487 53.014 534.914 53.574C534.354 54.134 533.627 54.414 532.734 54.414C531.84 54.414 531.107 54.134 530.534 53.574C529.974 53.014 529.694 52.2473 529.694 51.274ZM541.894 48.414L533.914 62.334H531.674L539.654 48.414H541.894ZM532.734 49.534C531.894 49.534 531.474 50.114 531.474 51.274C531.474 52.4473 531.894 53.034 532.734 53.034C533.134 53.034 533.44 52.894 533.654 52.614C533.88 52.3207 533.994 51.874 533.994 51.274C533.994 50.114 533.574 49.534 532.734 49.534ZM537.834 59.454C537.834 58.4807 538.114 57.7207 538.674 57.174C539.247 56.614 539.98 56.334 540.874 56.334C541.754 56.334 542.474 56.614 543.034 57.174C543.607 57.7207 543.894 58.4807 543.894 59.454C543.894 60.4273 543.607 61.194 543.034 61.754C542.474 62.314 541.754 62.594 540.874 62.594C539.98 62.594 539.247 62.314 538.674 61.754C538.114 61.194 537.834 60.4273 537.834 59.454ZM540.854 57.714C540.014 57.714 539.594 58.294 539.594 59.454C539.594 60.614 540.014 61.194 540.854 61.194C541.694 61.194 542.114 60.614 542.114 59.454C542.114 58.294 541.694 57.714 540.854 57.714ZM473.608 86.474C472.314 86.474 471.121 86.174 470.028 85.574C468.948 84.9607 468.088 84.114 467.448 83.034C466.821 81.9407 466.508 80.714 466.508 79.354C466.508 77.994 466.821 76.774 467.448 75.694C468.088 74.614 468.948 73.774 470.028 73.174C471.121 72.5606 472.314 72.254 473.608 72.254C474.914 72.254 476.108 72.5606 477.188 73.174C478.281 73.774 479.141 74.614 479.768 75.694C480.394 76.774 480.708 77.994 480.708 79.354C480.708 80.714 480.394 81.9407 479.768 83.034C479.141 84.114 478.281 84.9607 477.188 85.574C476.108 86.174 474.914 86.474 473.608 86.474ZM473.608 84.494C474.528 84.494 475.348 84.2873 476.068 83.874C476.788 83.4473 477.348 82.8473 477.748 82.074C478.161 81.2873 478.368 80.3807 478.368 79.354C478.368 78.3273 478.161 77.4273 477.748 76.654C477.348 75.8807 476.788 75.2873 476.068 74.874C475.348 74.4607 474.528 74.254 473.608 74.254C472.688 74.254 471.868 74.4607 471.148 74.874C470.428 75.2873 469.861 75.8807 469.448 76.654C469.048 77.4273 468.848 78.3273 468.848 79.354C468.848 80.3807 469.048 81.2873 469.448 82.074C469.861 82.8473 470.428 83.4473 471.148 83.874C471.868 84.2873 472.688 84.494 473.608 84.494ZM487.211 84.294L490.331 75.314H492.751L488.551 86.334H485.831L481.651 75.314H484.091L487.211 84.294ZM504.575 80.554C504.575 80.9673 504.548 81.3407 504.495 81.674H496.075C496.141 82.554 496.468 83.2607 497.055 83.794C497.641 84.3273 498.361 84.594 499.215 84.594C500.441 84.594 501.308 84.0807 501.815 83.054H504.275C503.941 84.0673 503.335 84.9007 502.455 85.554C501.588 86.194 500.508 86.514 499.215 86.514C498.161 86.514 497.215 86.2807 496.375 85.814C495.548 85.334 494.895 84.6673 494.415 83.814C493.948 82.9473 493.715 81.9473 493.715 80.814C493.715 79.6807 493.941 78.6873 494.395 77.834C494.861 76.9673 495.508 76.3007 496.335 75.834C497.175 75.3673 498.135 75.134 499.215 75.134C500.255 75.134 501.181 75.3607 501.995 75.814C502.808 76.2673 503.441 76.9073 503.895 77.734C504.348 78.5473 504.575 79.4873 504.575 80.554ZM502.195 79.834C502.181 78.994 501.881 78.3207 501.295 77.814C500.708 77.3073 499.981 77.054 499.115 77.054C498.328 77.054 497.655 77.3073 497.095 77.814C496.535 78.3073 496.201 78.9807 496.095 79.834H502.195ZM509.098 76.914C509.432 76.354 509.872 75.9207 510.418 75.614C510.978 75.294 511.638 75.134 512.398 75.134V77.494H511.818C510.925 77.494 510.245 77.7207 509.778 78.174C509.325 78.6273 509.098 79.414 509.098 80.534V86.334H506.818V75.314H509.098V76.914ZM518.754 84.294L521.874 75.314H524.294L520.094 86.334H517.374L513.194 75.314H515.634L518.754 84.294ZM525.258 80.774C525.258 79.6673 525.484 78.6873 525.938 77.834C526.404 76.9807 527.031 76.3207 527.818 75.854C528.618 75.374 529.498 75.134 530.458 75.134C531.324 75.134 532.078 75.3073 532.718 75.654C533.371 75.9873 533.891 76.4073 534.278 76.914V75.314H536.578V86.334H534.278V84.694C533.891 85.214 533.364 85.6473 532.698 85.994C532.031 86.3407 531.271 86.514 530.418 86.514C529.471 86.514 528.604 86.274 527.818 85.794C527.031 85.3007 526.404 84.6207 525.938 83.754C525.484 82.874 525.258 81.8807 525.258 80.774ZM534.278 80.814C534.278 80.054 534.118 79.394 533.798 78.834C533.491 78.274 533.084 77.8473 532.578 77.554C532.071 77.2607 531.524 77.114 530.938 77.114C530.351 77.114 529.804 77.2607 529.298 77.554C528.791 77.834 528.378 78.254 528.058 78.814C527.751 79.3607 527.598 80.014 527.598 80.774C527.598 81.534 527.751 82.2007 528.058 82.774C528.378 83.3473 528.791 83.7873 529.298 84.094C529.818 84.3873 530.364 84.534 530.938 84.534C531.524 84.534 532.071 84.3873 532.578 84.094C533.084 83.8007 533.491 83.374 533.798 82.814C534.118 82.2407 534.278 81.574 534.278 80.814ZM541.852 71.534V86.334H539.572V71.534H541.852ZM554.826 75.314V86.334H552.546V85.034C552.186 85.4873 551.712 85.8473 551.126 86.114C550.552 86.3673 549.939 86.494 549.286 86.494C548.419 86.494 547.639 86.314 546.946 85.954C546.266 85.594 545.726 85.0607 545.326 84.354C544.939 83.6473 544.746 82.794 544.746 81.794V75.314H547.006V81.454C547.006 82.4407 547.252 83.2007 547.746 83.734C548.239 84.254 548.912 84.514 549.766 84.514C550.619 84.514 551.292 84.254 551.786 83.734C552.292 83.2007 552.546 82.4407 552.546 81.454V75.314H554.826ZM567.934 80.554C567.934 80.9673 567.907 81.3407 567.854 81.674H559.434C559.501 82.554 559.827 83.2607 560.414 83.794C561.001 84.3273 561.721 84.594 562.574 84.594C563.801 84.594 564.667 84.0807 565.174 83.054H567.634C567.301 84.0673 566.694 84.9007 565.814 85.554C564.947 86.194 563.867 86.514 562.574 86.514C561.521 86.514 560.574 86.2807 559.734 85.814C558.907 85.334 558.254 84.6673 557.774 83.814C557.307 82.9473 557.074 81.9473 557.074 80.814C557.074 79.6807 557.301 78.6873 557.754 77.834C558.221 76.9673 558.867 76.3007 559.694 75.834C560.534 75.3673 561.494 75.134 562.574 75.134C563.614 75.134 564.541 75.3607 565.354 75.814C566.167 76.2673 566.801 76.9073 567.254 77.734C567.707 78.5473 567.934 79.4873 567.934 80.554ZM565.554 79.834C565.541 78.994 565.241 78.3207 564.654 77.814C564.067 77.3073 563.341 77.054 562.474 77.054C561.687 77.054 561.014 77.3073 560.454 77.814C559.894 78.3073 559.561 78.9807 559.454 79.834H565.554ZM569.418 80.774C569.418 79.6673 569.644 78.6873 570.098 77.834C570.564 76.9807 571.191 76.3207 571.978 75.854C572.778 75.374 573.664 75.134 574.638 75.134C575.358 75.134 576.064 75.294 576.758 75.614C577.464 75.9207 578.024 76.334 578.438 76.854V71.534H580.738V86.334H578.438V84.674C578.064 85.2073 577.544 85.6473 576.878 85.994C576.224 86.3407 575.471 86.514 574.618 86.514C573.658 86.514 572.778 86.274 571.978 85.794C571.191 85.3007 570.564 84.6207 570.098 83.754C569.644 82.874 569.418 81.8807 569.418 80.774ZM578.438 80.814C578.438 80.054 578.278 79.394 577.958 78.834C577.651 78.274 577.244 77.8473 576.738 77.554C576.231 77.2607 575.684 77.114 575.098 77.114C574.511 77.114 573.964 77.2607 573.458 77.554C572.951 77.834 572.538 78.254 572.218 78.814C571.911 79.3607 571.758 80.014 571.758 80.774C571.758 81.534 571.911 82.2007 572.218 82.774C572.538 83.3473 572.951 83.7873 573.458 84.094C573.978 84.3873 574.524 84.534 575.098 84.534C575.684 84.534 576.231 84.3873 576.738 84.094C577.244 83.8007 577.651 83.374 577.958 82.814C578.278 82.2407 578.438 81.574 578.438 80.814Z" fill="#FF5733"/>
<path d="M352.293 75.5411C352.683 75.9316 353.317 75.9316 353.707 75.5411L360.071 69.1771C360.462 68.7866 360.462 68.1534 360.071 67.7629C359.681 67.3724 359.047 67.3724 358.657 67.7629L353 73.4198L347.343 67.7629C346.953 67.3724 346.319 67.3724 345.929 67.7629C345.538 68.1534 345.538 68.7866 345.929 69.1771L352.293 75.5411ZM352 24.834L352 74.834L354 74.834L354 24.834L352 24.834Z" fill="#FF5733"/>
<path d="M230.201 30.084C230.778 29.084 232.222 29.084 232.799 30.084L241.026 44.334C241.604 45.334 240.882 46.584 239.727 46.584H223.273C222.118 46.584 221.396 45.334 221.974 44.334L230.201 30.084Z" fill="#03AC13"/>
<defs>
<linearGradient id="paint0_linear_11457_16756" x1="25.4297" y1="50.9553" x2="436.491" y2="50.9553" gradientUnits="userSpaceOnUse">
<stop stop-color="#FFD700"/>
<stop offset="0.449051" stop-color="#00A719"/>
<stop offset="0.545049" stop-color="#05B00E"/>
<stop offset="1" stop-color="#FF5733"/>
</linearGradient>
</defs>
</svg>
