<svg width="204" height="77" viewBox="0 0 204 77" fill="none" xmlns="http://www.w3.org/2000/svg">
<path d="M145.921 27.7094L146.025 23.9879L148.076 23.988L148.075 27.6994C161.954 30.9975 163.658 55.797 155.994 66.9786C149.617 76.2827 142.489 73.9315 139.723 71.5929C130.94 64.6643 131.229 50.8511 132.471 44.8105C134.549 31.3677 142.304 27.8086 145.921 27.7094Z" fill="#929292"/>
<path d="M151.656 31.6676L150.113 31.6007C155.096 35.3652 155.733 42.5642 155.842 46.3541C156.736 53.2915 155.387 64.278 149.816 69.9148C149.128 70.7883 147.782 71.3717 147.278 71.6005C156.336 72.0155 158.47 52.4028 157.206 43.8209C156.557 36.4148 153.235 32.6328 151.656 31.6676Z" fill="#404040"/>
<path d="M95.4083 21.9007C95.3855 21.8007 95.3614 21.7033 95.3385 21.6046L69.5622 10.0815L94.7565 20.2504L94.8034 19.3623L94.7311 19.3377C85.7366 -10.4304 47.3555 3.04034 47.3555 3.04034C47.3555 3.04034 68.2117 41.3622 95.4083 21.9007Z" fill="#406325"/>
<path d="M114.736 30.1664L113.694 26.5674L113.657 26.4549L115.812 26.1641L116.781 29.4916C130.989 28.3669 140.207 51.6103 136.345 64.6941C133.132 75.581 125.633 75.5285 122.286 74.1414C111.812 70.2125 107.855 56.8838 107.185 50.7105C105.043 37.1844 111.326 31.3785 114.736 30.1664Z" fill="#929292"/>
<path d="M121.563 32.4141L120.074 32.8236C125.971 34.8786 128.786 41.5352 130.052 45.1093C133.03 51.4382 135.115 62.3092 131.541 69.3828C131.154 70.4252 130.052 71.3932 129.642 71.7654C138.391 69.3828 134.408 50.0608 130.573 42.2798C127.684 35.4296 123.363 32.8484 121.563 32.4141Z" fill="#404040"/>
<path d="M99.1484 31.4944L100.31 28.3125H102.632L101.217 31.9333C103.742 32.2295 106.164 34.9582 107.059 36.2856C102.327 46.7017 106.696 59.1441 108.873 63.4598C101.144 82.8804 88.6975 76.3337 86.0849 70.9208C81.7666 63.5329 82.4441 53.2435 83.6174 48.5743C87.13 34.7641 95.435 31.4335 99.1484 31.4944Z" fill="#406325"/>
<path d="M203.093 21.4918L203.63 33.4177C169.545 15.7198 101.986 26.7988 72.4675 34.5505C70.8444 34.8367 42.8296 43.3359 29.0251 47.5498L64.2325 38.3072L64.5309 38.7246C61.7621 48.8378 54.5853 55.8979 51.343 58.1639C34.348 68.0863 10.3273 62.2982 0.441406 58.1639C26.6978 21.3843 51.2436 27.9317 60.2344 35.8029C135.614 12.5235 186.882 16.5624 203.093 21.4918Z" fill="#406325"/>
</svg>
