<svg width="35" height="16" viewBox="0 0 35 16" fill="none" xmlns="http://www.w3.org/2000/svg">
<rect width="35" height="16" rx="4" fill="#BFA100"/>
<g clip-path="url(#clip0_11644_12727)">
<path d="M4.83513 7H11.1685M7.33513 5L6.66847 7L8.0018 10.8333L9.33513 7L8.66847 5M8.20666 10.7542L11.1929 7.17072C11.2435 7.10998 11.2688 7.07962 11.2785 7.04572C11.287 7.01584 11.287 6.98416 11.2785 6.95428C11.2688 6.92038 11.2435 6.89002 11.1929 6.82928L9.74842 5.09595C9.71903 5.06068 9.70434 5.04305 9.68632 5.03037C9.67036 5.01914 9.65255 5.01079 9.6337 5.00572C9.61243 5 9.58948 5 9.54357 5H6.46003C6.41412 5 6.39117 5 6.36989 5.00572C6.35105 5.01079 6.33324 5.01914 6.31727 5.03037C6.29926 5.04305 6.28456 5.06068 6.25517 5.09595L4.81073 6.82928C4.76012 6.89001 4.73481 6.92038 4.72514 6.95428C4.71662 6.98416 4.71662 7.01584 4.72514 7.04572C4.73481 7.07962 4.76012 7.10998 4.81073 7.17071L7.79694 10.7542C7.86729 10.8386 7.90247 10.8808 7.94458 10.8962C7.98153 10.9097 8.02207 10.9097 8.05901 10.8962C8.10113 10.8808 8.13631 10.8386 8.20666 10.7542Z" stroke="white" stroke-width="0.5" stroke-linecap="round" stroke-linejoin="round"/>
</g>
<path d="M20.0289 7.12C20.0289 7.47333 19.9456 7.80667 19.7789 8.12C19.6123 8.43333 19.3456 8.69 18.9789 8.89C18.6123 9.08333 18.1423 9.18 17.5689 9.18H16.3089V12H15.1689V5.05H17.5689C18.1023 5.05 18.5523 5.14333 18.9189 5.33C19.2923 5.51 19.5689 5.75667 19.7489 6.07C19.9356 6.38333 20.0289 6.73333 20.0289 7.12ZM17.5689 8.25C18.0023 8.25 18.3256 8.15333 18.5389 7.96C18.7523 7.76 18.8589 7.48 18.8589 7.12C18.8589 6.36 18.4289 5.98 17.5689 5.98H16.3089V8.25H17.5689ZM22.2562 7.29C22.4229 7.01 22.6429 6.79333 22.9162 6.64C23.1962 6.48 23.5262 6.4 23.9062 6.4V7.58H23.6162C23.1695 7.58 22.8295 7.69333 22.5962 7.92C22.3695 8.14667 22.2562 8.54 22.2562 9.1V12H21.1162V6.49H22.2562V7.29ZM27.3441 12.09C26.8241 12.09 26.3541 11.9733 25.9341 11.74C25.5141 11.5 25.1841 11.1667 24.9441 10.74C24.7041 10.3067 24.5841 9.80667 24.5841 9.24C24.5841 8.68 24.7074 8.18333 24.9541 7.75C25.2008 7.31667 25.5374 6.98333 25.9641 6.75C26.3908 6.51667 26.8674 6.4 27.3941 6.4C27.9208 6.4 28.3974 6.51667 28.8241 6.75C29.2508 6.98333 29.5874 7.31667 29.8341 7.75C30.0808 8.18333 30.2041 8.68 30.2041 9.24C30.2041 9.8 30.0774 10.2967 29.8241 10.73C29.5708 11.1633 29.2241 11.5 28.7841 11.74C28.3508 11.9733 27.8708 12.09 27.3441 12.09ZM27.3441 11.1C27.6374 11.1 27.9108 11.03 28.1641 10.89C28.4241 10.75 28.6341 10.54 28.7941 10.26C28.9541 9.98 29.0341 9.64 29.0341 9.24C29.0341 8.84 28.9574 8.50333 28.8041 8.23C28.6508 7.95 28.4474 7.74 28.1941 7.6C27.9408 7.46 27.6674 7.39 27.3741 7.39C27.0808 7.39 26.8074 7.46 26.5541 7.6C26.3074 7.74 26.1108 7.95 25.9641 8.23C25.8174 8.50333 25.7441 8.84 25.7441 9.24C25.7441 9.83333 25.8941 10.2933 26.1941 10.62C26.5008 10.94 26.8841 11.1 27.3441 11.1Z" fill="white"/>
<defs>
<clipPath id="clip0_11644_12727">
<rect width="8" height="8" fill="white" transform="translate(4 4)"/>
</clipPath>
</defs>
</svg>
