<svg width="36" height="16" viewBox="0 0 36 16" fill="none" xmlns="http://www.w3.org/2000/svg">
<rect x="0.164062" width="35" height="16" rx="4" fill="#FF5733"/>
<g clip-path="url(#clip0_11652_13927)">
<path d="M4.99919 7H11.3325M7.49919 5L6.83253 7L8.16586 10.8333L9.49919 7L8.83253 5M8.37072 10.7542L11.3569 7.17072C11.4075 7.10998 11.4328 7.07962 11.4425 7.04572C11.451 7.01584 11.451 6.98416 11.4425 6.95428C11.4328 6.92038 11.4075 6.89002 11.3569 6.82928L9.91249 5.09595C9.8831 5.06068 9.8684 5.04305 9.85039 5.03037C9.83442 5.01914 9.81661 5.01079 9.79777 5.00572C9.77649 5 9.75354 5 9.70763 5H6.62409C6.57818 5 6.55523 5 6.53396 5.00572C6.51511 5.01079 6.4973 5.01914 6.48134 5.03037C6.46332 5.04305 6.44863 5.06068 6.41924 5.09595L4.97479 6.82928C4.92418 6.89001 4.89888 6.92038 4.88921 6.95428C4.88068 6.98416 4.88068 7.01584 4.88921 7.04572C4.89888 7.07962 4.92418 7.10998 4.97479 7.17071L7.961 10.7542C8.03135 10.8386 8.06653 10.8808 8.10865 10.8962C8.14559 10.9097 8.18613 10.9097 8.22308 10.8962C8.26519 10.8808 8.30037 10.8386 8.37072 10.7542Z" stroke="white" stroke-width="0.5" stroke-linecap="round" stroke-linejoin="round"/>
</g>
<path d="M20.193 7.12C20.193 7.47333 20.1097 7.80667 19.943 8.12C19.7763 8.43333 19.5097 8.69 19.143 8.89C18.7763 9.08333 18.3063 9.18 17.733 9.18H16.473V12H15.333V5.05H17.733C18.2663 5.05 18.7163 5.14333 19.083 5.33C19.4563 5.51 19.733 5.75667 19.913 6.07C20.0997 6.38333 20.193 6.73333 20.193 7.12ZM17.733 8.25C18.1663 8.25 18.4897 8.15333 18.703 7.96C18.9163 7.76 19.023 7.48 19.023 7.12C19.023 6.36 18.593 5.98 17.733 5.98H16.473V8.25H17.733ZM22.4203 7.29C22.5869 7.01 22.8069 6.79333 23.0803 6.64C23.3603 6.48 23.6903 6.4 24.0703 6.4V7.58H23.7803C23.3336 7.58 22.9936 7.69333 22.7603 7.92C22.5336 8.14667 22.4203 8.54 22.4203 9.1V12H21.2803V6.49H22.4203V7.29ZM27.5082 12.09C26.9882 12.09 26.5182 11.9733 26.0982 11.74C25.6782 11.5 25.3482 11.1667 25.1082 10.74C24.8682 10.3067 24.7482 9.80667 24.7482 9.24C24.7482 8.68 24.8715 8.18333 25.1182 7.75C25.3648 7.31667 25.7015 6.98333 26.1282 6.75C26.5548 6.51667 27.0315 6.4 27.5582 6.4C28.0848 6.4 28.5615 6.51667 28.9882 6.75C29.4148 6.98333 29.7515 7.31667 29.9982 7.75C30.2448 8.18333 30.3682 8.68 30.3682 9.24C30.3682 9.8 30.2415 10.2967 29.9882 10.73C29.7348 11.1633 29.3882 11.5 28.9482 11.74C28.5148 11.9733 28.0348 12.09 27.5082 12.09ZM27.5082 11.1C27.8015 11.1 28.0748 11.03 28.3282 10.89C28.5882 10.75 28.7982 10.54 28.9582 10.26C29.1182 9.98 29.1982 9.64 29.1982 9.24C29.1982 8.84 29.1215 8.50333 28.9682 8.23C28.8148 7.95 28.6115 7.74 28.3582 7.6C28.1048 7.46 27.8315 7.39 27.5382 7.39C27.2448 7.39 26.9715 7.46 26.7182 7.6C26.4715 7.74 26.2748 7.95 26.1282 8.23C25.9815 8.50333 25.9082 8.84 25.9082 9.24C25.9082 9.83333 26.0582 10.2933 26.3582 10.62C26.6648 10.94 27.0482 11.1 27.5082 11.1Z" fill="white"/>
<defs>
<clipPath id="clip0_11652_13927">
<rect width="8" height="8" fill="white" transform="translate(4.16406 4)"/>
</clipPath>
</defs>
</svg>
