<svg width="69" height="16" viewBox="0 0 69 16" fill="none" xmlns="http://www.w3.org/2000/svg">
<rect width="69" height="16" rx="4" fill="#2695FF"/>
<rect x="4.25" y="2.25" width="11.5" height="11.5" rx="5.75" stroke="white" stroke-width="0.5"/>
<path d="M10 3L11.1226 6.45492H14.7553L11.8164 8.59017L12.9389 12.0451L10 9.90983L7.06107 12.0451L8.18364 8.59017L5.24472 6.45492H8.87743L10 3Z" fill="white"/>
<path d="M20.2257 5.05V9.48C20.2257 10.0067 20.3624 10.4033 20.6357 10.67C20.9157 10.9367 21.3024 11.07 21.7957 11.07C22.2957 11.07 22.6824 10.9367 22.9557 10.67C23.2357 10.4033 23.3757 10.0067 23.3757 9.48V5.05H24.5157V9.46C24.5157 10.0267 24.3924 10.5067 24.1457 10.9C23.899 11.2933 23.569 11.5867 23.1557 11.78C22.7424 11.9733 22.2857 12.07 21.7857 12.07C21.2857 12.07 20.829 11.9733 20.4157 11.78C20.009 11.5867 19.6857 11.2933 19.4457 10.9C19.2057 10.5067 19.0857 10.0267 19.0857 9.46V5.05H20.2257ZM27.14 11.08H29.49V12H26V5.05H27.14V11.08ZM34.9334 5.05V5.98H33.0834V12H31.9434V5.98H30.0834V5.05H34.9334ZM37.2279 5.05V12H36.0879V5.05H37.2279ZM46.0446 5.05V12H44.9046V7.24L42.7846 12H41.9946L39.8646 7.24V12H38.7246V5.05H39.9546L42.3946 10.5L44.8246 5.05H46.0446ZM51.733 10.58H48.823L48.323 12H47.133L49.623 5.04H50.943L53.433 12H52.233L51.733 10.58ZM51.413 9.65L50.283 6.42L49.143 9.65H51.413ZM59.0056 5.05V5.98H57.1556V12H56.0156V5.98H54.1556V5.05H59.0056ZM61.3002 5.97V8.01H63.7002V8.94H61.3002V11.07H64.0002V12H60.1602V5.04H64.0002V5.97H61.3002Z" fill="white"/>
</svg>
